<?xml version="1.0" encoding="UTF-8"?>
<svg id="Layer_1" data-name="Layer 1" xmlns="http://www.w3.org/2000/svg" viewBox="0 0 600 600">
  <defs>
    <style>
      .cls-1 {
        stroke-linecap: round;
        stroke-linejoin: round;
        stroke-width: 8.47px;
      }

      .cls-1, .cls-2 {
        fill: #c0f252;
        stroke: #c0f252;
      }

      .cls-2 {
        stroke-miterlimit: 10;
        stroke-width: 3.26px;
      }
    </style>
  </defs>
  <g>
    <path class="cls-2" d="M394.55,303.43v-.08l-67.38,5.5,51.55,43.85c9.9-14.9,15.24-32.08,15.83-49.27ZM325.31,286.42l67.38-5.5c-3.3-16.76-11.17-32.76-23.53-46.05l-43.85,51.55ZM308.13,271.77l43.85-51.55c-14.98-9.9-32.08-15.24-49.35-15.74l5.5,67.3ZM285.69,273.64l-5.59-67.38c-16.68,3.3-32.67,11.09-46.05,23.53l51.64,43.85Z"/>
    <path class="cls-1" d="M394.55,303.35v.08c-.59,17.18-5.93,34.37-15.83,49.27l-51.55-43.85,67.38-5.5Z"/>
    <path class="cls-1" d="M392.69,280.92l-67.38,5.5,43.85-51.55c12.36,13.29,20.23,29.29,23.53,46.05Z"/>
    <path class="cls-1" d="M351.98,220.22l-43.85,51.55-5.5-67.3c17.27.51,34.37,5.84,49.35,15.74Z"/>
    <path class="cls-1" d="M280.11,206.25l5.59,67.38-51.64-43.85c13.37-12.44,29.37-20.23,46.05-23.53Z"/>
  </g>
  <g>
    <path class="cls-2" d="M205.45,296.57v.08l67.38-5.5-51.55-43.85c-9.9,14.9-15.24,32.08-15.83,49.27ZM274.69,313.58l-67.38,5.5c3.3,16.76,11.17,32.76,23.53,46.05l43.85-51.55ZM291.87,328.23l-43.85,51.55c14.98,9.9,32.08,15.24,49.35,15.74l-5.5-67.3ZM314.31,326.36l5.59,67.38c16.68-3.3,32.67-11.09,46.05-23.53l-51.64-43.85Z"/>
    <path class="cls-1" d="M205.45,296.65v-.08c.59-17.18,5.93-34.37,15.83-49.27l51.55,43.85-67.38,5.5Z"/>
    <path class="cls-1" d="M207.31,319.08l67.38-5.5-43.85,51.55c-12.36-13.29-20.23-29.29-23.53-46.05Z"/>
    <path class="cls-1" d="M248.02,379.78l43.85-51.55,5.5,67.3c-17.27-.51-34.37-5.84-49.35-15.74Z"/>
    <path class="cls-1" d="M319.89,393.75l-5.59-67.38,51.64,43.85c-13.37,12.44-29.37,20.23-46.05,23.53Z"/>
  </g>
</svg>