<?xml version="1.0" encoding="UTF-8"?>
<svg id="Layer_1" data-name="Layer 1" xmlns="http://www.w3.org/2000/svg" viewBox="0 0 600 600">
  <defs>
    <style>
      .cls-1 {
        fill: #d71c24;
        stroke: #d71c24;
        stroke-miterlimit: 10;
        stroke-width: .14px;
      }

      .cls-2 {
        fill: #fff;
      }

      .cls-2, .cls-3 {
        stroke-width: 0px;
      }

      .cls-3 {
        fill: #811d05;
      }
    </style>
  </defs>
  <path class="cls-1" d="M300,199.43h0c39.76,0,72.04,32.28,72.04,72.04v129.1h-144.08v-129.1c0-39.76,32.28-72.04,72.04-72.04Z"/>
  <g>
    <path class="cls-3" d="M372.04,330.54c0,9.95-8.06,18.01-18.01,18.01s-18.01-8.06-18.01-18.01"/>
    <path class="cls-3" d="M336.02,330.54c0,9.95-8.06,18.01-18.01,18.01s-18.01-8.06-18.01-18.01"/>
    <path class="cls-3" d="M300,330.54c0,9.95-8.06,18.01-18.01,18.01s-18.01-8.06-18.01-18.01"/>
    <path class="cls-3" d="M263.98,330.54c0,9.95-8.06,18.01-18.01,18.01s-18.01-8.06-18.01-18.01"/>
    <path class="cls-3" d="M372.04,354.55c0,9.95-8.06,18.01-18.01,18.01s-18.01-8.06-18.01-18.01"/>
    <path class="cls-3" d="M336.02,354.55c0,9.95-8.06,18.01-18.01,18.01s-18.01-8.06-18.01-18.01"/>
    <path class="cls-3" d="M300,354.55c0,9.95-8.06,18.01-18.01,18.01s-18.01-8.06-18.01-18.01"/>
    <path class="cls-3" d="M263.98,354.55c0,9.95-8.06,18.01-18.01,18.01s-18.01-8.06-18.01-18.01"/>
    <path class="cls-3" d="M372.04,378.56c0,9.95-8.06,18.01-18.01,18.01s-18.01-8.06-18.01-18.01"/>
    <path class="cls-3" d="M336.02,378.56c0,9.95-8.06,18.01-18.01,18.01s-18.01-8.06-18.01-18.01"/>
    <path class="cls-3" d="M300,378.56c0,9.95-8.06,18.01-18.01,18.01s-18.01-8.06-18.01-18.01"/>
    <path class="cls-3" d="M263.98,378.56c0,9.95-8.06,18.01-18.01,18.01s-18.01-8.06-18.01-18.01"/>
  </g>
  <g>
    <path class="cls-2" d="M326.73,294.94h-7.76c-8.49,0-15.37,6.89-15.37,15.39v7.72h7.75c8.5,0,15.39-6.89,15.39-15.39v-7.72Z"/>
    <path class="cls-2" d="M326.73,262.44h-7.76c-8.49,0-15.37,6.89-15.37,15.37v7.72h7.75c8.5,0,15.39-6.89,15.39-15.37v-7.72Z"/>
    <path class="cls-2" d="M296.4,282.37v-4.55c0-8.5-6.89-15.39-15.39-15.39h-4.55s-3.2,0-3.2,0v3.17s0,4.55,0,4.55c0,8.5,6.89,15.39,15.37,15.39h4.56s3.2,0,3.2,0v-3.17Z"/>
    <path class="cls-2" d="M296.4,314.87v-4.55c0-8.49-6.89-15.37-15.39-15.37h-4.55s-3.2,0-3.2,0v3.17s0,4.55,0,4.55c0,8.49,6.89,15.37,15.37,15.37h4.56s3.2,0,3.2,0v-3.17Z"/>
    <path class="cls-2" d="M299.74,226.99l-2.26,2.26-3.22,3.22c-6,6-6,15.74,0,21.74l3.21,3.21,2.24,2.24,2.26-2.26,3.21-3.21c6.01-6.01,6.01-15.75,0-21.75l-3.21-3.21-2.24-2.24Z"/>
  </g>
</svg>