<?xml version="1.0" encoding="UTF-8"?>
<svg id="a" data-name="Layer_1" xmlns="http://www.w3.org/2000/svg" width="128" height="128" viewBox="0 0 128 128">
  <defs>
    <style>
      .b {
        fill: #134033;
      }

      .c {
        fill: #c0f252;
      }
    </style>
  </defs>
  <path class="c" d="M109.61,64c0,2.92-4.1,5.39-4.65,8.15-.56,2.84,2.27,6.69,1.18,9.31-1.1,2.66-5.84,3.38-7.42,5.74-1.59,2.38-.46,7.03-2.48,9.05s-6.67.88-9.05,2.48c-2.36,1.58-3.08,6.32-5.74,7.42-2.61,1.08-6.47-1.75-9.31-1.18s-5.23,4.65-8.15,4.65-5.39-4.1-8.15-4.65c-2.84-.56-6.69,2.27-9.31,1.18s-3.38-5.84-5.74-7.42c-2.38-1.59-7.03-.46-9.05-2.48-2.02-2.02-.88-6.67-2.48-9.05-1.58-2.36-6.32-3.08-7.42-5.74-1.08-2.61,1.75-6.47,1.18-9.31-.55-2.76-4.65-5.23-4.65-8.15s4.1-5.39,4.65-8.15c.56-2.84-2.27-6.69-1.18-9.31,1.1-2.66,5.84-3.38,7.42-5.74,1.59-2.38.46-7.03,2.48-9.05s6.67-.88,9.05-2.48c2.36-1.58,3.08-6.32,5.74-7.42,2.61-1.08,6.47,1.75,9.31,1.18s5.23-4.65,8.15-4.65,5.39,4.1,8.15,4.65c2.84.56,6.69-2.27,9.31-1.18s3.38,5.84,5.74,7.42c2.38,1.59,7.03.46,9.05,2.48,2.02,2.02.88,6.67,2.48,9.05,1.58,2.36,6.32,3.08,7.42,5.74,1.08,2.61-1.75,6.47-1.18,9.31.55,2.76,4.65,5.23,4.65,8.15Z"/>
  <g>
    <path class="b" d="M74.01,86.78l-.7-1.05c.24-.16.47-.32.69-.49.04-.03.1-.08.17-.13.35-.27.71-.56,1.05-.87l.14-.13c.2-.18.38-.36.57-.55.18-.18.36-.37.53-.56l.08-.09c.2-.22.39-.45.57-.68.05-.06.09-.12.14-.18h0s.13-.18.13-.18c.09-.12.18-.23.26-.35.17-.24.34-.48.49-.73.14-.22.28-.45.41-.68.13-.23.26-.46.38-.7.12-.24.24-.48.35-.72.16-.36.32-.73.46-1.11.61-1.67.96-3.42,1.02-5.2v-1.6h-33.5v1.62c.06,1.77.41,3.52,1.02,5.18.14.38.29.75.46,1.11.11.24.22.48.34.72l-1.12.57c-.13-.25-.25-.51-.37-.77-.18-.39-.34-.79-.49-1.19-.66-1.79-1.03-3.67-1.1-5.6v-2.9s36.02,0,36.02,0v2.88c-.07,1.94-.44,3.82-1.1,5.62,0,0,0,0,0,0h0c-.14.39-.3.77-.47,1.14,0,0,0,.01,0,.02,0,.01-.01.02-.02.04-.12.26-.24.52-.37.77-.13.25-.27.5-.41.75-.14.25-.29.49-.44.73-.17.27-.35.53-.53.79-.08.11-.16.22-.24.32l-.05.06c-.09.12-.19.25-.29.38-.15.19-.3.37-.46.55h0s-.16.19-.16.19c-.21.23-.43.47-.65.69-.2.2-.4.4-.61.59l-.16.14c-.36.33-.75.65-1.14.95l-.15.11c-.27.2-.52.38-.77.55Z"/>
    <path class="b" d="M54.62,87.16l-.18-.09c-.09-.06-.21-.13-.33-.21l-.81-.57c-.34-.26-.62-.47-.89-.7l-.42-.36c-.16-.15-.27-.25-.38-.35l-.14-.13c-.08-.08-.16-.15-.23-.23l-.07-.07c-.12-.12-.22-.23-.33-.35-.11-.11-.21-.23-.32-.36-.21-.23-.41-.47-.61-.72l.98-.79c.18.23.37.45.57.67.1.12.2.22.3.33.11.12.21.22.31.33l.38.37c.14.13.23.22.33.3l.47.41c.24.2.5.4.76.6l1.14.77-.29.48-.22.67Z"/>
    <path class="b" d="M54.62,87.16l-.18-.09c-.09-.06-.21-.13-.33-.21l-.81-.57c-.34-.26-.62-.47-.89-.7l-.42-.36c-.16-.15-.27-.25-.38-.35l-.14-.13c-.08-.08-.16-.15-.23-.23l-.07-.07c-.12-.12-.22-.23-.33-.35-.11-.11-.21-.23-.32-.36-.21-.23-.41-.47-.61-.72-.2-.26-.39-.51-.58-.76-.19-.26-.36-.52-.54-.79-.15-.24-.3-.48-.44-.73-.14-.25-.28-.5-.41-.75l1.12-.58c.12.24.25.47.38.7.13.23.27.45.41.68.16.25.33.49.5.74.17.24.35.47.54.71.18.22.37.45.57.67.1.12.2.22.3.33.11.12.21.22.31.33l.38.37c.14.13.23.22.33.3l.47.41c.24.2.5.4.76.6l1.14.77-.29.48-.22.67Z"/>
    <path class="b" d="M63.87,47.93c-.68,0-1.34-.11-1.97-.33l-.42-.16c-.07-.03-.16-.07-.24-.11l-.92-.55c-.15-.11-.25-.19-.34-.27l-.64-.62c-.07-.08-.14-.16-.2-.24,0,0-.01-.02-.02-.03-.05-.07-.11-.14-.16-.21,0,0,0,0,0,0,0,0,0,0,0,0,0,0,0,0,0,0-.06-.08-.12-.17-.18-.26-.05-.08-.1-.16-.15-.24,0,0,0,0,0,0-.05-.08-.09-.16-.13-.25l.37-.19-.38.19c-.04-.08-.08-.17-.12-.26-.06-.13-.11-.27-.16-.4-.22-.6-.35-1.23-.37-1.88v-1.35s12.11,0,12.11,0v1.33c-.02.67-.15,1.3-.37,1.9h0c-.04.12-.09.23-.14.35h0s0,.02-.01.03c0,0,0,0,0,0,0,0,0,.01,0,.02-.04.09-.08.17-.12.26-.04.09-.09.17-.14.25,0,0,0,0,0,0-.05.08-.09.16-.14.24-.06.09-.12.18-.18.26h0s0,0,0,0l-.2.26s-.07.09-.11.14c-.03.04-.06.07-.09.11,0,0,0,0,0,0-.01.01-.02.02-.03.03-.06.06-.12.13-.18.19,0,0,0,0,0,0-.06.07-.13.13-.2.2-.18.16-.3.27-.44.37-1.11.83-2.36,1.24-3.67,1.24ZM61.99,46.29l-.12.63.23-.59.16.06c1.64.56,3.22.27,4.48-.67.15-.11.25-.2.35-.29.1-.09.15-.14.2-.19.06-.06.12-.12.18-.19.02-.03.05-.06.07-.09.03-.04.06-.07.09-.11h0l.15-.2c.05-.07.1-.14.15-.22.04-.06.08-.13.12-.19l.11-.2c.03-.06.07-.13.1-.2,0,0,0,0,0,0,.05-.1.09-.21.13-.32.18-.48.27-.98.29-1.49v-.05h-9.59v.07c.02.49.12.99.29,1.47.04.11.08.21.13.32l.1.21c.03.07.07.13.11.2.04.06.08.13.12.19.05.07.09.14.14.21,0,0,0,0,0,0,.04.06.09.12.13.17,0,0,0,0,0,0,0,0,0,0,0,0,0,0,0,0,0,0,0,0,0,0,0,0,.05.07.1.13.16.19,0,0,0,0,0,0l.17.19-.36.53.43-.46.13.12-.32.55.41-.48c.12.1.19.16.27.21l-.29.57.38-.5.24.16-.23.6.32-.54.3.16c.12.06.19.09.26.12Z"/>
    <path class="b" d="M72.33,91.08h-15.73c-1.54,0-2.8-1.25-2.8-2.8s1.25-2.8,2.8-2.8h15.73c1.54,0,2.8,1.25,2.8,2.8s-1.25,2.8-2.8,2.8ZM56.59,86.75c-.85,0-1.54.69-1.54,1.54s.69,1.54,1.54,1.54h15.73c.85,0,1.54-.69,1.54-1.54s-.69-1.54-1.54-1.54h-15.73Z"/>
    <g>
      <circle class="b" cx="66.9" cy="62.7" r="1.45"/>
      <path class="b" d="M66.9,64.28c-.87,0-1.57-.71-1.57-1.57s.71-1.57,1.57-1.57,1.57.71,1.57,1.57-.71,1.57-1.57,1.57ZM66.9,61.38c-.73,0-1.32.59-1.32,1.32s.59,1.32,1.32,1.32,1.32-.59,1.32-1.32-.59-1.32-1.32-1.32Z"/>
    </g>
    <g>
      <circle class="b" cx="60.99" cy="50.6" r="1.45"/>
      <path class="b" d="M60.99,52.18c-.87,0-1.57-.71-1.57-1.57s.71-1.57,1.57-1.57,1.57.71,1.57,1.57-.71,1.57-1.57,1.57ZM60.99,49.28c-.73,0-1.32.59-1.32,1.32s.59,1.32,1.32,1.32,1.32-.59,1.32-1.32-.59-1.32-1.32-1.32Z"/>
    </g>
    <g>
      <circle class="b" cx="70.23" cy="65.6" r="1.45"/>
      <path class="b" d="M70.23,67.18c-.87,0-1.57-.71-1.57-1.57s.71-1.57,1.57-1.57,1.57.71,1.57,1.57-.71,1.57-1.57,1.57ZM70.23,64.28c-.73,0-1.32.59-1.32,1.32s.59,1.32,1.32,1.32,1.32-.59,1.32-1.32-.59-1.32-1.32-1.32Z"/>
    </g>
    <g>
      <circle class="b" cx="63.41" cy="53.97" r="1.45"/>
      <path class="b" d="M63.41,55.55c-.87,0-1.57-.71-1.57-1.57s.71-1.57,1.57-1.57,1.57.71,1.57,1.57-.71,1.57-1.57,1.57ZM63.41,52.65c-.73,0-1.32.59-1.32,1.32s.59,1.32,1.32,1.32,1.32-.59,1.32-1.32-.59-1.32-1.32-1.32Z"/>
    </g>
    <g>
      <circle class="b" cx="59.54" cy="55.77" r="1.45"/>
      <path class="b" d="M59.54,57.35c-.87,0-1.57-.71-1.57-1.57s.71-1.57,1.57-1.57,1.57.71,1.57,1.57-.71,1.57-1.57,1.57ZM59.54,54.45c-.73,0-1.32.59-1.32,1.32s.59,1.32,1.32,1.32,1.32-.59,1.32-1.32-.59-1.32-1.32-1.32Z"/>
    </g>
    <path class="b" d="M77.51,44.81h-8.72v-1.26h8.72c.9,0,1.64-.68,1.74-1.55h-12.72v-1.26h14v1.06c0,1.66-1.35,3.01-3.01,3.01Z"/>
    <path class="b" d="M79.93,70.79h-31.86l9.95-9.95c3.29-3.29,8.66-3.29,11.95,0l9.95,9.95ZM51.11,69.53h25.77l-7.8-7.8c-2.8-2.8-7.37-2.81-10.17,0l-7.8,7.8Z"/>
    <path class="b" d="M63.87,38.81c.38,0,.73.15,1,.41l.88.88h-3.77l.88-.88c.27-.27.62-.41,1-.41M63.87,37.55c-.68,0-1.37.26-1.89.78l-3.03,3.03h9.85l-3.03-3.03c-.52-.52-1.21-.78-1.89-.78h0Z"/>
  </g>
</svg>