<?xml version="1.0" encoding="UTF-8"?>
<svg id="Layer_1" data-name="Layer 1" xmlns="http://www.w3.org/2000/svg" viewBox="0 0 400 400">
  <defs>
    <style>
      .cls-1 {
        fill: #000;
      }

      .cls-1, .cls-2 {
        stroke-width: 0px;
      }

      .cls-2 {
        fill: #fff;
      }
    </style>
  </defs>
  <rect class="cls-1" x="-68.96" y="-2590.49" width="551.49" height="3731.74"/>
  <g>
    <path class="cls-2" d="M366.67,158.07v25.95l-1.24-1.09c-4.02-3.56-7.91-4.95-13.86-4.95-5.43,0-10.87,2.03-15.33,5.71-4.82,4.08-7.16,9.51-7.16,16.57,0,12.94,8.72,21.3,22.21,21.3h28.74v-63.48h-13.35ZM343.3,200.69c0-6.92,4.59-11.56,11.41-11.56s11.1,4.53,11.1,11.84c0,6.63-4.61,11.26-11.2,11.26s-11.31-4.76-11.31-11.54Z"/>
    <path class="cls-2" d="M344.82,229.3c-11.9-.82-21.24-11.16-21.24-23.52v-10.05c0-7.4-.97-10.87-3.87-13.73-2.69-2.51-6.85-4.02-11.1-4.02-5.43,0-8.18,1.5-10.89,5.92l-1.39,2.26v-8.02h-13.34v43.49h13.34v-25.63c0-4.59,2.83-7.69,7.01-7.69s6.89,2.87,6.89,7.51v10.6c.09,5.49,1.38,10.75,3.84,15.61,6.22,12.32,18.62,19.98,32.36,19.98h33.57v-12.67h-33.57c-.54,0-1.09-.02-1.63-.05Z"/>
    <path class="cls-2" d="M263.42,184.9l-1.27-1.29c-4.08-4.11-7.75-5.64-13.53-5.64-13.16,0-22.7,9.42-22.7,22.37s9.02,21.21,21.43,21.21c.24,0,.45,0,.66-.01l.37-.03h28.4v-43.37h-13.35v6.76ZM251.38,212.23c-6.64,0-11.28-4.74-11.28-11.54s4.58-11.56,11.4-11.56,11.1,4.55,11.1,11.84c0,6.64-4.61,11.26-11.22,11.26Z"/>
    <path class="cls-2" d="M241.5,229.3c-11.92-.82-21.25-11.16-21.25-23.54v-47.78h-13.35v47.81c0,5.73,1.3,11.19,3.87,16.24,6.21,12.32,18.74,19.98,32.71,19.98h33.3v-12.67h-33.3c-.9,0-1.44-.02-1.97-.05Z"/>
    <path class="cls-2" d="M177.34,177.97c-14.27,0-24.24,9.36-24.24,22.75s10.11,22.66,24.05,22.66,24.23-9.74,24.23-22.18c0-13.46-10.11-23.22-24.03-23.22ZM177.24,212.28c-6.52,0-11.08-4.76-11.08-11.56s4.49-11.54,11.19-11.54,10.89,4.53,10.89,11.83c0,6.64-4.52,11.28-10.99,11.28Z"/>
    <path class="cls-2" d="M170.37,229.31c-8.42-.52-16.03-5.49-20.35-13.28l-9.69-17.41,12.73-20.73h-15.06l-11.22,17.98v-37.9h-13.35v63.65h13.35v-20.2l11.25,20.2h.01l.34.63c6.77,12.19,19.65,19.77,33.6,19.77h7.58v-12.67h-7.58c-.54,0-1.08-.01-1.62-.04Z"/>
    <path class="cls-2" d="M83.88,177.97c-14.27,0-24.24,9.36-24.24,22.75s10.11,22.66,24.05,22.66,24.23-9.74,24.23-22.18c0-13.46-10.11-23.22-24.03-23.22ZM83.77,212.28c-6.52,0-11.08-4.76-11.08-11.56s4.5-11.54,11.19-11.54,10.89,4.53,10.89,11.83c0,6.64-4.52,11.28-10.99,11.28Z"/>
    <path class="cls-2" d="M76.91,229.31c-8.42-.52-16.02-5.49-20.35-13.28l-9.69-17.41,12.73-20.73h-15.04l-11.23,17.98v-37.9h-13.34v63.65h13.34v-20.2l11.25,20.2h.01l.34.63c6.77,12.19,19.65,19.77,33.6,19.77h7.58v-12.67h-7.58c-.54,0-1.08-.01-1.62-.04Z"/>
  </g>
</svg>